<mxfile host="app.diagrams.net" modified="2021-08-11T07:33:58.573Z" agent="5.0 (Macintosh; Intel Mac OS X 10_15_7) AppleWebKit/537.36 (KHTML, like Gecko) Chrome/92.0.4515.131 Safari/537.36" etag="H8cTrWe6jnzw5jWm6BC4" version="14.9.6" type="github">
  <diagram name="Page-1" id="13e1069c-82ec-6db2-03f1-153e76fe0fe0">
    <mxGraphModel dx="821" dy="532" grid="1" gridSize="10" guides="1" tooltips="1" connect="1" arrows="1" fold="1" page="1" pageScale="1" pageWidth="1100" pageHeight="850" background="none" math="0" shadow="0">
      <root>
        <mxCell id="0" />
        <mxCell id="1" parent="0" />
        <mxCell id="7baba1c4bc27f4b0-2" value="OSS" style="shape=umlLifeline;perimeter=lifelinePerimeter;whiteSpace=wrap;html=1;container=1;collapsible=0;recursiveResize=0;outlineConnect=0;rounded=1;shadow=0;comic=0;labelBackgroundColor=none;strokeWidth=1;fontFamily=Verdana;fontSize=12;align=center;" parent="1" vertex="1">
          <mxGeometry x="308" y="80" width="100" height="740" as="geometry" />
        </mxCell>
        <mxCell id="7baba1c4bc27f4b0-10" value="" style="html=1;points=[];perimeter=orthogonalPerimeter;rounded=0;shadow=0;comic=0;labelBackgroundColor=none;strokeWidth=1;fontFamily=Verdana;fontSize=12;align=center;" parent="7baba1c4bc27f4b0-2" vertex="1">
          <mxGeometry x="45" y="100" width="10" height="60" as="geometry" />
        </mxCell>
        <mxCell id="7baba1c4bc27f4b0-3" value="HUB-API" style="shape=umlLifeline;perimeter=lifelinePerimeter;whiteSpace=wrap;html=1;container=1;collapsible=0;recursiveResize=0;outlineConnect=0;rounded=1;shadow=0;comic=0;labelBackgroundColor=none;strokeWidth=1;fontFamily=Verdana;fontSize=12;align=center;" parent="1" vertex="1">
          <mxGeometry x="540" y="80" width="100" height="760" as="geometry" />
        </mxCell>
        <mxCell id="7baba1c4bc27f4b0-13" value="" style="html=1;points=[];perimeter=orthogonalPerimeter;rounded=0;shadow=0;comic=0;labelBackgroundColor=none;strokeWidth=1;fontFamily=Verdana;fontSize=12;align=center;" parent="7baba1c4bc27f4b0-3" vertex="1">
          <mxGeometry x="45" y="120" width="10" height="590" as="geometry" />
        </mxCell>
        <mxCell id="7baba1c4bc27f4b0-8" value="三方" style="shape=umlLifeline;perimeter=lifelinePerimeter;whiteSpace=wrap;html=1;container=1;collapsible=0;recursiveResize=0;outlineConnect=0;rounded=1;shadow=0;comic=0;labelBackgroundColor=none;strokeWidth=1;fontFamily=Verdana;fontSize=12;align=center;" parent="1" vertex="1">
          <mxGeometry x="100" y="80" width="100" height="740" as="geometry" />
        </mxCell>
        <mxCell id="7baba1c4bc27f4b0-9" value="" style="html=1;points=[];perimeter=orthogonalPerimeter;rounded=0;shadow=0;comic=0;labelBackgroundColor=none;strokeWidth=1;fontFamily=Verdana;fontSize=12;align=center;" parent="7baba1c4bc27f4b0-8" vertex="1">
          <mxGeometry x="45" y="100" width="10" height="610" as="geometry" />
        </mxCell>
        <mxCell id="7baba1c4bc27f4b0-23" value="固件列表查询" style="html=1;verticalAlign=bottom;endArrow=block;entryX=0;entryY=0;labelBackgroundColor=none;fontFamily=Verdana;fontSize=12;" parent="1" edge="1">
          <mxGeometry relative="1" as="geometry">
            <mxPoint x="155" y="359.0000000000001" as="sourcePoint" />
            <mxPoint x="585" y="359.0000000000001" as="targetPoint" />
          </mxGeometry>
        </mxCell>
        <mxCell id="7baba1c4bc27f4b0-11" value="上传固件" style="html=1;verticalAlign=bottom;endArrow=block;entryX=0;entryY=0;labelBackgroundColor=none;fontFamily=Verdana;fontSize=12;edgeStyle=elbowEdgeStyle;elbow=vertical;" parent="1" source="7baba1c4bc27f4b0-9" target="7baba1c4bc27f4b0-10" edge="1">
          <mxGeometry relative="1" as="geometry">
            <mxPoint x="220" y="190" as="sourcePoint" />
          </mxGeometry>
        </mxCell>
        <mxCell id="7baba1c4bc27f4b0-14" value="dispatch" style="html=1;verticalAlign=bottom;endArrow=block;entryX=0;entryY=0;labelBackgroundColor=none;fontFamily=Verdana;fontSize=12;edgeStyle=elbowEdgeStyle;elbow=vertical;" parent="1" source="7baba1c4bc27f4b0-10" target="7baba1c4bc27f4b0-13" edge="1">
          <mxGeometry relative="1" as="geometry">
            <mxPoint x="438" y="200" as="sourcePoint" />
          </mxGeometry>
        </mxCell>
        <mxCell id="L69lFb7E2IQTXerms_Y1-1" value="objectKey" style="html=1;verticalAlign=bottom;endArrow=open;dashed=1;endSize=8;" edge="1" parent="1">
          <mxGeometry relative="1" as="geometry">
            <mxPoint x="353.5" y="220" as="sourcePoint" />
            <mxPoint x="156" y="220" as="targetPoint" />
          </mxGeometry>
        </mxCell>
        <mxCell id="L69lFb7E2IQTXerms_Y1-4" value="创建固件（固件信息、objectKey）" style="html=1;verticalAlign=bottom;endArrow=block;entryX=0;entryY=0;labelBackgroundColor=none;fontFamily=Verdana;fontSize=12;" edge="1" parent="1">
          <mxGeometry relative="1" as="geometry">
            <mxPoint x="155" y="269.0000000000001" as="sourcePoint" />
            <mxPoint x="585" y="269.0000000000001" as="targetPoint" />
          </mxGeometry>
        </mxCell>
        <mxCell id="L69lFb7E2IQTXerms_Y1-6" value="创建结果" style="html=1;verticalAlign=bottom;endArrow=open;dashed=1;endSize=8;labelBackgroundColor=none;fontFamily=Verdana;fontSize=12;edgeStyle=elbowEdgeStyle;elbow=vertical;" edge="1" parent="1">
          <mxGeometry relative="1" as="geometry">
            <mxPoint x="155" y="301" as="targetPoint" />
            <Array as="points">
              <mxPoint x="460" y="301" />
              <mxPoint x="570" y="591" />
            </Array>
            <mxPoint x="580" y="301" as="sourcePoint" />
          </mxGeometry>
        </mxCell>
        <mxCell id="L69lFb7E2IQTXerms_Y1-7" value="列表" style="html=1;verticalAlign=bottom;endArrow=open;dashed=1;endSize=8;labelBackgroundColor=none;fontFamily=Verdana;fontSize=12;edgeStyle=elbowEdgeStyle;elbow=vertical;" edge="1" parent="1">
          <mxGeometry relative="1" as="geometry">
            <mxPoint x="158" y="393" as="targetPoint" />
            <Array as="points">
              <mxPoint x="463" y="393" />
              <mxPoint x="573" y="683" />
            </Array>
            <mxPoint x="583" y="393" as="sourcePoint" />
          </mxGeometry>
        </mxCell>
        <mxCell id="L69lFb7E2IQTXerms_Y1-8" value="固件详情查询" style="html=1;verticalAlign=bottom;endArrow=block;entryX=0;entryY=0;labelBackgroundColor=none;fontFamily=Verdana;fontSize=12;" edge="1" parent="1">
          <mxGeometry relative="1" as="geometry">
            <mxPoint x="156" y="442.0000000000001" as="sourcePoint" />
            <mxPoint x="586" y="442.0000000000001" as="targetPoint" />
          </mxGeometry>
        </mxCell>
        <mxCell id="L69lFb7E2IQTXerms_Y1-9" value="详情结果" style="html=1;verticalAlign=bottom;endArrow=open;dashed=1;endSize=8;labelBackgroundColor=none;fontFamily=Verdana;fontSize=12;edgeStyle=elbowEdgeStyle;elbow=vertical;" edge="1" parent="1">
          <mxGeometry relative="1" as="geometry">
            <mxPoint x="159" y="476" as="targetPoint" />
            <Array as="points">
              <mxPoint x="464" y="476" />
              <mxPoint x="574" y="766" />
            </Array>
            <mxPoint x="584" y="476" as="sourcePoint" />
          </mxGeometry>
        </mxCell>
        <mxCell id="L69lFb7E2IQTXerms_Y1-10" value="" style="html=1;points=[];perimeter=orthogonalPerimeter;rounded=0;shadow=0;comic=0;labelBackgroundColor=none;strokeWidth=1;fontFamily=Verdana;fontSize=12;align=center;" vertex="1" parent="1">
          <mxGeometry x="353" y="480" width="10" height="150" as="geometry" />
        </mxCell>
        <mxCell id="L69lFb7E2IQTXerms_Y1-11" value="固件详情" style="html=1;verticalAlign=bottom;endArrow=block;entryX=0;entryY=0;labelBackgroundColor=none;fontFamily=Verdana;fontSize=12;edgeStyle=elbowEdgeStyle;elbow=horizontal;" edge="1" parent="1">
          <mxGeometry relative="1" as="geometry">
            <mxPoint x="154.5" y="499.5" as="sourcePoint" />
            <mxPoint x="352.5" y="499.5" as="targetPoint" />
          </mxGeometry>
        </mxCell>
        <mxCell id="L69lFb7E2IQTXerms_Y1-12" value="详情结果" style="html=1;verticalAlign=bottom;endArrow=open;dashed=1;endSize=8;" edge="1" parent="1">
          <mxGeometry relative="1" as="geometry">
            <mxPoint x="353" y="523.5" as="sourcePoint" />
            <mxPoint x="155.5" y="523.5" as="targetPoint" />
          </mxGeometry>
        </mxCell>
        <mxCell id="L69lFb7E2IQTXerms_Y1-13" value="固件下载" style="html=1;verticalAlign=bottom;endArrow=block;entryX=0;entryY=0;labelBackgroundColor=none;fontFamily=Verdana;fontSize=12;edgeStyle=elbowEdgeStyle;elbow=vertical;" edge="1" parent="1">
          <mxGeometry relative="1" as="geometry">
            <mxPoint x="154.5" y="580" as="sourcePoint" />
            <mxPoint x="352.5" y="580" as="targetPoint" />
          </mxGeometry>
        </mxCell>
        <mxCell id="L69lFb7E2IQTXerms_Y1-14" value="固件" style="html=1;verticalAlign=bottom;endArrow=open;dashed=1;endSize=8;" edge="1" parent="1">
          <mxGeometry relative="1" as="geometry">
            <mxPoint x="353" y="619" as="sourcePoint" />
            <mxPoint x="155.5" y="619" as="targetPoint" />
          </mxGeometry>
        </mxCell>
        <mxCell id="L69lFb7E2IQTXerms_Y1-17" value="OTA_SET指令下发" style="html=1;verticalAlign=bottom;endArrow=block;entryX=0;entryY=0;labelBackgroundColor=none;fontFamily=Verdana;fontSize=12;" edge="1" parent="1">
          <mxGeometry relative="1" as="geometry">
            <mxPoint x="157" y="680.0000000000001" as="sourcePoint" />
            <mxPoint x="587" y="680.0000000000001" as="targetPoint" />
          </mxGeometry>
        </mxCell>
        <mxCell id="L69lFb7E2IQTXerms_Y1-18" value="" style="html=1;points=[];perimeter=orthogonalPerimeter;rounded=0;shadow=0;comic=0;labelBackgroundColor=none;strokeWidth=1;fontFamily=Verdana;fontSize=12;align=center;" vertex="1" parent="1">
          <mxGeometry x="353" y="690" width="10" height="60" as="geometry" />
        </mxCell>
        <mxCell id="L69lFb7E2IQTXerms_Y1-19" value="固件下载（objectKey）" style="html=1;verticalAlign=bottom;endArrow=block;labelBackgroundColor=none;fontFamily=Verdana;fontSize=12;" edge="1" parent="1">
          <mxGeometry relative="1" as="geometry">
            <mxPoint x="585" y="711" as="sourcePoint" />
            <mxPoint x="362.5" y="711" as="targetPoint" />
          </mxGeometry>
        </mxCell>
        <mxCell id="L69lFb7E2IQTXerms_Y1-20" value="固件信息（expiredUrl）" style="html=1;verticalAlign=bottom;endArrow=open;dashed=1;endSize=8;entryX=0.1;entryY=0.927;entryDx=0;entryDy=0;entryPerimeter=0;" edge="1" parent="1" target="7baba1c4bc27f4b0-13">
          <mxGeometry relative="1" as="geometry">
            <mxPoint x="360" y="747" as="sourcePoint" />
            <mxPoint x="420" y="750" as="targetPoint" />
          </mxGeometry>
        </mxCell>
      </root>
    </mxGraphModel>
  </diagram>
</mxfile>
